<mxfile host="app.diagrams.net" agent="Mozilla/5.0 (Windows NT 10.0; Win64; x64) AppleWebKit/537.36 (KHTML, like Gecko) Chrome/127.0.0.0 Safari/537.36" version="24.7.6">
  <diagram id="R2lEEEUBdFMjLlhIrx00" name="Page-1">
    <mxGraphModel dx="1573" dy="707" grid="1" gridSize="10" guides="1" tooltips="1" connect="1" arrows="1" fold="1" page="1" pageScale="1" pageWidth="850" pageHeight="1100" math="0" shadow="0" extFonts="Permanent Marker^https://fonts.googleapis.com/css?family=Permanent+Marker">
      <root>
        <mxCell id="0" />
        <mxCell id="1" parent="0" />
        <mxCell id="e_puLNf8z6GZZm7geGai-37" style="edgeStyle=orthogonalEdgeStyle;rounded=0;orthogonalLoop=1;jettySize=auto;html=1;exitX=0.75;exitY=0;exitDx=0;exitDy=0;entryX=0.5;entryY=1;entryDx=0;entryDy=0;" edge="1" parent="1" source="e_puLNf8z6GZZm7geGai-1" target="e_puLNf8z6GZZm7geGai-25">
          <mxGeometry relative="1" as="geometry" />
        </mxCell>
        <mxCell id="e_puLNf8z6GZZm7geGai-42" style="edgeStyle=orthogonalEdgeStyle;rounded=0;orthogonalLoop=1;jettySize=auto;html=1;exitX=0.25;exitY=0;exitDx=0;exitDy=0;entryX=1;entryY=0.5;entryDx=0;entryDy=0;" edge="1" parent="1" source="e_puLNf8z6GZZm7geGai-1" target="e_puLNf8z6GZZm7geGai-27">
          <mxGeometry relative="1" as="geometry" />
        </mxCell>
        <mxCell id="e_puLNf8z6GZZm7geGai-43" style="edgeStyle=orthogonalEdgeStyle;rounded=0;orthogonalLoop=1;jettySize=auto;html=1;entryX=1;entryY=0.5;entryDx=0;entryDy=0;" edge="1" parent="1" source="e_puLNf8z6GZZm7geGai-1" target="e_puLNf8z6GZZm7geGai-28">
          <mxGeometry relative="1" as="geometry" />
        </mxCell>
        <mxCell id="e_puLNf8z6GZZm7geGai-44" style="edgeStyle=orthogonalEdgeStyle;rounded=0;orthogonalLoop=1;jettySize=auto;html=1;exitX=0;exitY=0.75;exitDx=0;exitDy=0;entryX=1;entryY=0.5;entryDx=0;entryDy=0;" edge="1" parent="1" source="e_puLNf8z6GZZm7geGai-1" target="e_puLNf8z6GZZm7geGai-29">
          <mxGeometry relative="1" as="geometry" />
        </mxCell>
        <mxCell id="e_puLNf8z6GZZm7geGai-45" style="edgeStyle=orthogonalEdgeStyle;rounded=0;orthogonalLoop=1;jettySize=auto;html=1;exitX=0.25;exitY=1;exitDx=0;exitDy=0;entryX=1;entryY=0;entryDx=0;entryDy=0;" edge="1" parent="1" source="e_puLNf8z6GZZm7geGai-1" target="e_puLNf8z6GZZm7geGai-30">
          <mxGeometry relative="1" as="geometry" />
        </mxCell>
        <mxCell id="e_puLNf8z6GZZm7geGai-47" style="edgeStyle=orthogonalEdgeStyle;rounded=0;orthogonalLoop=1;jettySize=auto;html=1;exitX=0.75;exitY=1;exitDx=0;exitDy=0;" edge="1" parent="1" source="e_puLNf8z6GZZm7geGai-1" target="e_puLNf8z6GZZm7geGai-46">
          <mxGeometry relative="1" as="geometry" />
        </mxCell>
        <mxCell id="e_puLNf8z6GZZm7geGai-1" value="Customer" style="whiteSpace=wrap;html=1;align=center;" vertex="1" parent="1">
          <mxGeometry x="170" y="120" width="100" height="40" as="geometry" />
        </mxCell>
        <mxCell id="e_puLNf8z6GZZm7geGai-74" style="edgeStyle=orthogonalEdgeStyle;rounded=0;orthogonalLoop=1;jettySize=auto;html=1;" edge="1" parent="1" source="e_puLNf8z6GZZm7geGai-2" target="e_puLNf8z6GZZm7geGai-75">
          <mxGeometry relative="1" as="geometry">
            <mxPoint x="555" y="170" as="targetPoint" />
          </mxGeometry>
        </mxCell>
        <mxCell id="e_puLNf8z6GZZm7geGai-77" style="edgeStyle=orthogonalEdgeStyle;rounded=0;orthogonalLoop=1;jettySize=auto;html=1;entryX=0.5;entryY=1;entryDx=0;entryDy=0;" edge="1" parent="1" source="e_puLNf8z6GZZm7geGai-2" target="e_puLNf8z6GZZm7geGai-76">
          <mxGeometry relative="1" as="geometry">
            <Array as="points">
              <mxPoint x="616" y="200" />
            </Array>
          </mxGeometry>
        </mxCell>
        <mxCell id="e_puLNf8z6GZZm7geGai-79" style="edgeStyle=orthogonalEdgeStyle;rounded=0;orthogonalLoop=1;jettySize=auto;html=1;entryX=1;entryY=0.5;entryDx=0;entryDy=0;" edge="1" parent="1" source="e_puLNf8z6GZZm7geGai-2" target="e_puLNf8z6GZZm7geGai-78">
          <mxGeometry relative="1" as="geometry">
            <Array as="points">
              <mxPoint x="482" y="230" />
              <mxPoint x="482" y="270" />
            </Array>
          </mxGeometry>
        </mxCell>
        <mxCell id="e_puLNf8z6GZZm7geGai-82" style="edgeStyle=orthogonalEdgeStyle;rounded=0;orthogonalLoop=1;jettySize=auto;html=1;" edge="1" parent="1" source="e_puLNf8z6GZZm7geGai-2" target="e_puLNf8z6GZZm7geGai-80">
          <mxGeometry relative="1" as="geometry" />
        </mxCell>
        <mxCell id="e_puLNf8z6GZZm7geGai-84" style="edgeStyle=orthogonalEdgeStyle;rounded=0;orthogonalLoop=1;jettySize=auto;html=1;exitX=0.75;exitY=1;exitDx=0;exitDy=0;entryX=0.5;entryY=0;entryDx=0;entryDy=0;" edge="1" parent="1" source="e_puLNf8z6GZZm7geGai-2" target="e_puLNf8z6GZZm7geGai-83">
          <mxGeometry relative="1" as="geometry" />
        </mxCell>
        <mxCell id="e_puLNf8z6GZZm7geGai-2" value="Feedback" style="whiteSpace=wrap;html=1;align=center;" vertex="1" parent="1">
          <mxGeometry x="505" y="200" width="100" height="40" as="geometry" />
        </mxCell>
        <mxCell id="e_puLNf8z6GZZm7geGai-4" value="Gives" style="rhombus;whiteSpace=wrap;html=1;" vertex="1" parent="1">
          <mxGeometry x="360" y="100" width="80" height="80" as="geometry" />
        </mxCell>
        <mxCell id="e_puLNf8z6GZZm7geGai-7" value="About" style="rhombus;whiteSpace=wrap;html=1;" vertex="1" parent="1">
          <mxGeometry x="695" y="100" width="80" height="80" as="geometry" />
        </mxCell>
        <mxCell id="e_puLNf8z6GZZm7geGai-113" style="edgeStyle=orthogonalEdgeStyle;rounded=0;orthogonalLoop=1;jettySize=auto;html=1;entryX=1;entryY=0.5;entryDx=0;entryDy=0;" edge="1" parent="1" source="e_puLNf8z6GZZm7geGai-10" target="e_puLNf8z6GZZm7geGai-109">
          <mxGeometry relative="1" as="geometry" />
        </mxCell>
        <mxCell id="e_puLNf8z6GZZm7geGai-114" style="edgeStyle=orthogonalEdgeStyle;rounded=0;orthogonalLoop=1;jettySize=auto;html=1;exitX=0;exitY=0.75;exitDx=0;exitDy=0;entryX=1;entryY=0.5;entryDx=0;entryDy=0;" edge="1" parent="1" source="e_puLNf8z6GZZm7geGai-10" target="e_puLNf8z6GZZm7geGai-110">
          <mxGeometry relative="1" as="geometry" />
        </mxCell>
        <mxCell id="e_puLNf8z6GZZm7geGai-115" value="" style="edgeStyle=orthogonalEdgeStyle;rounded=0;orthogonalLoop=1;jettySize=auto;html=1;" edge="1" parent="1" source="e_puLNf8z6GZZm7geGai-10" target="e_puLNf8z6GZZm7geGai-111">
          <mxGeometry relative="1" as="geometry" />
        </mxCell>
        <mxCell id="e_puLNf8z6GZZm7geGai-10" value="Dealer" style="whiteSpace=wrap;html=1;align=center;" vertex="1" parent="1">
          <mxGeometry x="170" y="360" width="100" height="40" as="geometry" />
        </mxCell>
        <mxCell id="e_puLNf8z6GZZm7geGai-126" style="edgeStyle=orthogonalEdgeStyle;rounded=0;orthogonalLoop=1;jettySize=auto;html=1;entryX=0.5;entryY=1;entryDx=0;entryDy=0;" edge="1" parent="1" source="e_puLNf8z6GZZm7geGai-13" target="e_puLNf8z6GZZm7geGai-121">
          <mxGeometry relative="1" as="geometry" />
        </mxCell>
        <mxCell id="e_puLNf8z6GZZm7geGai-13" value="Sales" style="whiteSpace=wrap;html=1;align=center;" vertex="1" parent="1">
          <mxGeometry x="499" y="470" width="100" height="40" as="geometry" />
        </mxCell>
        <mxCell id="e_puLNf8z6GZZm7geGai-91" style="edgeStyle=orthogonalEdgeStyle;rounded=0;orthogonalLoop=1;jettySize=auto;html=1;" edge="1" parent="1" source="e_puLNf8z6GZZm7geGai-14" target="e_puLNf8z6GZZm7geGai-87">
          <mxGeometry relative="1" as="geometry" />
        </mxCell>
        <mxCell id="e_puLNf8z6GZZm7geGai-94" style="edgeStyle=orthogonalEdgeStyle;rounded=0;orthogonalLoop=1;jettySize=auto;html=1;exitX=0.25;exitY=1;exitDx=0;exitDy=0;entryX=1;entryY=0;entryDx=0;entryDy=0;" edge="1" parent="1" source="e_puLNf8z6GZZm7geGai-14" target="e_puLNf8z6GZZm7geGai-86">
          <mxGeometry relative="1" as="geometry" />
        </mxCell>
        <mxCell id="e_puLNf8z6GZZm7geGai-14" value="Vehicle" style="whiteSpace=wrap;html=1;align=center;" vertex="1" parent="1">
          <mxGeometry x="830" y="360" width="100" height="40" as="geometry" />
        </mxCell>
        <mxCell id="e_puLNf8z6GZZm7geGai-16" value="Makes" style="rhombus;whiteSpace=wrap;html=1;" vertex="1" parent="1">
          <mxGeometry x="340" y="340" width="80" height="80" as="geometry" />
        </mxCell>
        <mxCell id="e_puLNf8z6GZZm7geGai-18" value="Involves       " style="rhombus;whiteSpace=wrap;html=1;" vertex="1" parent="1">
          <mxGeometry x="695" y="340" width="80" height="80" as="geometry" />
        </mxCell>
        <mxCell id="e_puLNf8z6GZZm7geGai-105" value="" style="edgeStyle=orthogonalEdgeStyle;rounded=0;orthogonalLoop=1;jettySize=auto;html=1;" edge="1" parent="1" source="e_puLNf8z6GZZm7geGai-23" target="e_puLNf8z6GZZm7geGai-96">
          <mxGeometry relative="1" as="geometry" />
        </mxCell>
        <mxCell id="e_puLNf8z6GZZm7geGai-106" value="" style="edgeStyle=orthogonalEdgeStyle;rounded=0;orthogonalLoop=1;jettySize=auto;html=1;" edge="1" parent="1" source="e_puLNf8z6GZZm7geGai-23" target="e_puLNf8z6GZZm7geGai-98">
          <mxGeometry relative="1" as="geometry" />
        </mxCell>
        <mxCell id="e_puLNf8z6GZZm7geGai-108" value="" style="edgeStyle=orthogonalEdgeStyle;rounded=0;orthogonalLoop=1;jettySize=auto;html=1;" edge="1" parent="1" source="e_puLNf8z6GZZm7geGai-23" target="e_puLNf8z6GZZm7geGai-107">
          <mxGeometry relative="1" as="geometry" />
        </mxCell>
        <mxCell id="e_puLNf8z6GZZm7geGai-23" value="Salesperson  " style="whiteSpace=wrap;html=1;align=center;" vertex="1" parent="1">
          <mxGeometry x="499" y="630" width="100" height="40" as="geometry" />
        </mxCell>
        <mxCell id="e_puLNf8z6GZZm7geGai-25" value="CustomerID     " style="ellipse;whiteSpace=wrap;html=1;align=center;" vertex="1" parent="1">
          <mxGeometry x="265" y="40" width="100" height="40" as="geometry" />
        </mxCell>
        <mxCell id="e_puLNf8z6GZZm7geGai-26" value="CustomerName   " style="ellipse;whiteSpace=wrap;html=1;align=center;" vertex="1" parent="1">
          <mxGeometry x="160" y="40" width="100" height="40" as="geometry" />
        </mxCell>
        <mxCell id="e_puLNf8z6GZZm7geGai-27" value="CustomerAge    " style="ellipse;whiteSpace=wrap;html=1;align=center;" vertex="1" parent="1">
          <mxGeometry x="50" y="78" width="100" height="40" as="geometry" />
        </mxCell>
        <mxCell id="e_puLNf8z6GZZm7geGai-28" value="CustomerGender " style="ellipse;whiteSpace=wrap;html=1;align=center;" vertex="1" parent="1">
          <mxGeometry y="120" width="100" height="40" as="geometry" />
        </mxCell>
        <mxCell id="e_puLNf8z6GZZm7geGai-29" value="CustomerLocation" style="ellipse;whiteSpace=wrap;html=1;align=center;" vertex="1" parent="1">
          <mxGeometry x="50" y="160" width="110" height="40" as="geometry" />
        </mxCell>
        <mxCell id="e_puLNf8z6GZZm7geGai-30" value="&lt;span style=&quot;font-family: Arial; font-size: 13px; white-space-collapse: preserve; background-color: rgb(255, 255, 255);&quot;&gt;Registration Date &lt;/span&gt;" style="ellipse;whiteSpace=wrap;html=1;align=center;" vertex="1" parent="1">
          <mxGeometry x="91" y="210" width="121" height="40" as="geometry" />
        </mxCell>
        <mxCell id="e_puLNf8z6GZZm7geGai-31" value="" style="line;strokeWidth=1;rotatable=0;dashed=0;labelPosition=right;align=left;verticalAlign=middle;spacingTop=0;spacingLeft=6;points=[];portConstraint=eastwest;" vertex="1" parent="1">
          <mxGeometry x="270" y="135" width="90" height="10" as="geometry" />
        </mxCell>
        <mxCell id="e_puLNf8z6GZZm7geGai-32" value="" style="endArrow=none;html=1;rounded=0;exitX=1;exitY=0.5;exitDx=0;exitDy=0;entryX=0;entryY=0.5;entryDx=0;entryDy=0;" edge="1" parent="1" source="e_puLNf8z6GZZm7geGai-4" target="e_puLNf8z6GZZm7geGai-2">
          <mxGeometry relative="1" as="geometry">
            <mxPoint x="340" y="300" as="sourcePoint" />
            <mxPoint x="500" y="300" as="targetPoint" />
            <Array as="points">
              <mxPoint x="440" y="220" />
            </Array>
          </mxGeometry>
        </mxCell>
        <mxCell id="e_puLNf8z6GZZm7geGai-41" style="edgeStyle=orthogonalEdgeStyle;rounded=0;orthogonalLoop=1;jettySize=auto;html=1;entryX=0.462;entryY=1.062;entryDx=0;entryDy=0;entryPerimeter=0;" edge="1" parent="1" source="e_puLNf8z6GZZm7geGai-1" target="e_puLNf8z6GZZm7geGai-26">
          <mxGeometry relative="1" as="geometry" />
        </mxCell>
        <mxCell id="e_puLNf8z6GZZm7geGai-46" value="&lt;span style=&quot;font-family: Arial; font-size: 13px; white-space-collapse: preserve; background-color: rgb(255, 255, 255);&quot;&gt;Purchase History&lt;/span&gt;" style="ellipse;whiteSpace=wrap;html=1;align=center;" vertex="1" parent="1">
          <mxGeometry x="230" y="200" width="100" height="40" as="geometry" />
        </mxCell>
        <mxCell id="e_puLNf8z6GZZm7geGai-48" value="" style="endArrow=none;html=1;rounded=0;exitX=0.5;exitY=1;exitDx=0;exitDy=0;entryX=0.5;entryY=0;entryDx=0;entryDy=0;" edge="1" parent="1" source="e_puLNf8z6GZZm7geGai-1" target="e_puLNf8z6GZZm7geGai-10">
          <mxGeometry relative="1" as="geometry">
            <mxPoint x="300" y="230" as="sourcePoint" />
            <mxPoint x="460" y="230" as="targetPoint" />
          </mxGeometry>
        </mxCell>
        <mxCell id="e_puLNf8z6GZZm7geGai-49" value="" style="endArrow=none;html=1;rounded=0;exitX=1;exitY=0.5;exitDx=0;exitDy=0;" edge="1" parent="1" source="e_puLNf8z6GZZm7geGai-10" target="e_puLNf8z6GZZm7geGai-16">
          <mxGeometry relative="1" as="geometry">
            <mxPoint x="350" y="170" as="sourcePoint" />
            <mxPoint x="510" y="170" as="targetPoint" />
          </mxGeometry>
        </mxCell>
        <mxCell id="e_puLNf8z6GZZm7geGai-53" value="" style="endArrow=none;html=1;rounded=0;exitX=1;exitY=0.5;exitDx=0;exitDy=0;entryX=0;entryY=0.5;entryDx=0;entryDy=0;" edge="1" parent="1" source="e_puLNf8z6GZZm7geGai-16" target="e_puLNf8z6GZZm7geGai-13">
          <mxGeometry relative="1" as="geometry">
            <mxPoint x="350" y="260" as="sourcePoint" />
            <mxPoint x="510" y="260" as="targetPoint" />
          </mxGeometry>
        </mxCell>
        <mxCell id="e_puLNf8z6GZZm7geGai-56" value="" style="endArrow=none;html=1;rounded=0;entryX=0.5;entryY=0;entryDx=0;entryDy=0;exitX=1;exitY=0.5;exitDx=0;exitDy=0;" edge="1" parent="1" source="e_puLNf8z6GZZm7geGai-7" target="e_puLNf8z6GZZm7geGai-14">
          <mxGeometry relative="1" as="geometry">
            <mxPoint x="350" y="260" as="sourcePoint" />
            <mxPoint x="510" y="260" as="targetPoint" />
            <Array as="points">
              <mxPoint x="880" y="140" />
            </Array>
          </mxGeometry>
        </mxCell>
        <mxCell id="e_puLNf8z6GZZm7geGai-57" value="1" style="resizable=0;html=1;whiteSpace=wrap;align=right;verticalAlign=bottom;" connectable="0" vertex="1" parent="e_puLNf8z6GZZm7geGai-56">
          <mxGeometry x="1" relative="1" as="geometry" />
        </mxCell>
        <mxCell id="e_puLNf8z6GZZm7geGai-58" value="" style="endArrow=none;html=1;rounded=0;entryX=0;entryY=0.5;entryDx=0;entryDy=0;exitX=1;exitY=0.5;exitDx=0;exitDy=0;" edge="1" parent="1" source="e_puLNf8z6GZZm7geGai-2" target="e_puLNf8z6GZZm7geGai-7">
          <mxGeometry relative="1" as="geometry">
            <mxPoint x="350" y="260" as="sourcePoint" />
            <mxPoint x="510" y="260" as="targetPoint" />
            <Array as="points">
              <mxPoint x="695" y="220" />
            </Array>
          </mxGeometry>
        </mxCell>
        <mxCell id="e_puLNf8z6GZZm7geGai-59" value="M" style="resizable=0;html=1;whiteSpace=wrap;align=left;verticalAlign=bottom;" connectable="0" vertex="1" parent="e_puLNf8z6GZZm7geGai-58">
          <mxGeometry x="-1" relative="1" as="geometry" />
        </mxCell>
        <mxCell id="e_puLNf8z6GZZm7geGai-61" value="M" style="resizable=0;html=1;whiteSpace=wrap;align=left;verticalAlign=bottom;" connectable="0" vertex="1" parent="1">
          <mxGeometry x="271" y="141.9999999999999" as="geometry" />
        </mxCell>
        <mxCell id="e_puLNf8z6GZZm7geGai-62" value="M" style="resizable=0;html=1;whiteSpace=wrap;align=left;verticalAlign=bottom;" connectable="0" vertex="1" parent="1">
          <mxGeometry x="490" y="221.9999999999999" as="geometry" />
        </mxCell>
        <mxCell id="e_puLNf8z6GZZm7geGai-63" value="" style="shape=link;html=1;rounded=0;entryX=0.5;entryY=1;entryDx=0;entryDy=0;exitX=0.5;exitY=0;exitDx=0;exitDy=0;" edge="1" parent="1" source="e_puLNf8z6GZZm7geGai-23" target="e_puLNf8z6GZZm7geGai-13">
          <mxGeometry relative="1" as="geometry">
            <mxPoint x="344" y="370" as="sourcePoint" />
            <mxPoint x="504" y="370" as="targetPoint" />
          </mxGeometry>
        </mxCell>
        <mxCell id="e_puLNf8z6GZZm7geGai-64" value="M" style="resizable=0;html=1;whiteSpace=wrap;align=left;verticalAlign=bottom;" connectable="0" vertex="1" parent="e_puLNf8z6GZZm7geGai-63">
          <mxGeometry x="-1" relative="1" as="geometry">
            <mxPoint x="5" as="offset" />
          </mxGeometry>
        </mxCell>
        <mxCell id="e_puLNf8z6GZZm7geGai-65" value="N" style="resizable=0;html=1;whiteSpace=wrap;align=right;verticalAlign=bottom;" connectable="0" vertex="1" parent="e_puLNf8z6GZZm7geGai-63">
          <mxGeometry x="1" relative="1" as="geometry">
            <mxPoint x="18" y="20" as="offset" />
          </mxGeometry>
        </mxCell>
        <mxCell id="e_puLNf8z6GZZm7geGai-66" value="" style="endArrow=none;html=1;rounded=0;entryX=0;entryY=0.5;entryDx=0;entryDy=0;exitX=1;exitY=0.5;exitDx=0;exitDy=0;" edge="1" parent="1" source="e_puLNf8z6GZZm7geGai-13" target="e_puLNf8z6GZZm7geGai-18">
          <mxGeometry relative="1" as="geometry">
            <mxPoint x="270" y="290" as="sourcePoint" />
            <mxPoint x="430" y="290" as="targetPoint" />
          </mxGeometry>
        </mxCell>
        <mxCell id="e_puLNf8z6GZZm7geGai-68" value="" style="endArrow=none;html=1;rounded=0;entryX=0;entryY=0.5;entryDx=0;entryDy=0;exitX=1;exitY=0.5;exitDx=0;exitDy=0;" edge="1" parent="1" source="e_puLNf8z6GZZm7geGai-18" target="e_puLNf8z6GZZm7geGai-14">
          <mxGeometry relative="1" as="geometry">
            <mxPoint x="270" y="290" as="sourcePoint" />
            <mxPoint x="430" y="290" as="targetPoint" />
          </mxGeometry>
        </mxCell>
        <mxCell id="e_puLNf8z6GZZm7geGai-69" value="1" style="resizable=0;html=1;whiteSpace=wrap;align=right;verticalAlign=bottom;" connectable="0" vertex="1" parent="1">
          <mxGeometry x="385" y="379.0000000000002" as="geometry">
            <mxPoint x="-104" as="offset" />
          </mxGeometry>
        </mxCell>
        <mxCell id="e_puLNf8z6GZZm7geGai-70" value="M" style="resizable=0;html=1;whiteSpace=wrap;align=left;verticalAlign=bottom;" connectable="0" vertex="1" parent="1">
          <mxGeometry x="609" y="329.9999999999999" as="geometry">
            <mxPoint x="-121" y="141" as="offset" />
          </mxGeometry>
        </mxCell>
        <mxCell id="e_puLNf8z6GZZm7geGai-72" value="1" style="resizable=0;html=1;whiteSpace=wrap;align=right;verticalAlign=bottom;" connectable="0" vertex="1" parent="1">
          <mxGeometry x="610" y="470" as="geometry" />
        </mxCell>
        <mxCell id="e_puLNf8z6GZZm7geGai-73" value="1" style="resizable=0;html=1;whiteSpace=wrap;align=right;verticalAlign=bottom;" connectable="0" vertex="1" parent="1">
          <mxGeometry x="830" y="382" as="geometry" />
        </mxCell>
        <mxCell id="e_puLNf8z6GZZm7geGai-75" value="FeedbackID       " style="ellipse;whiteSpace=wrap;html=1;align=center;" vertex="1" parent="1">
          <mxGeometry x="460" y="122" width="100" height="40" as="geometry" />
        </mxCell>
        <mxCell id="e_puLNf8z6GZZm7geGai-76" value="&lt;span style=&quot;font-family: Arial; font-size: 13px; white-space-collapse: preserve; background-color: rgb(255, 255, 255);&quot;&gt;FeedbackDate&lt;/span&gt;" style="ellipse;whiteSpace=wrap;html=1;align=center;" vertex="1" parent="1">
          <mxGeometry x="566" y="122" width="100" height="40" as="geometry" />
        </mxCell>
        <mxCell id="e_puLNf8z6GZZm7geGai-78" value="FeedbackType     " style="ellipse;whiteSpace=wrap;html=1;align=center;" vertex="1" parent="1">
          <mxGeometry x="360" y="250" width="100" height="40" as="geometry" />
        </mxCell>
        <mxCell id="e_puLNf8z6GZZm7geGai-80" value="FeedbackChannel  " style="ellipse;whiteSpace=wrap;html=1;align=center;" vertex="1" parent="1">
          <mxGeometry x="450" y="280" width="110" height="40" as="geometry" />
        </mxCell>
        <mxCell id="e_puLNf8z6GZZm7geGai-83" value="Rating" style="ellipse;whiteSpace=wrap;html=1;align=center;" vertex="1" parent="1">
          <mxGeometry x="566" y="280" width="100" height="40" as="geometry" />
        </mxCell>
        <mxCell id="e_puLNf8z6GZZm7geGai-85" value="VehicleID        " style="ellipse;whiteSpace=wrap;html=1;align=center;" vertex="1" parent="1">
          <mxGeometry x="700" y="430" width="100" height="40" as="geometry" />
        </mxCell>
        <mxCell id="e_puLNf8z6GZZm7geGai-86" value="VehicleModel     " style="ellipse;whiteSpace=wrap;html=1;align=center;" vertex="1" parent="1">
          <mxGeometry x="750" y="470" width="100" height="40" as="geometry" />
        </mxCell>
        <mxCell id="e_puLNf8z6GZZm7geGai-87" value="VehicleMake      " style="ellipse;whiteSpace=wrap;html=1;align=center;" vertex="1" parent="1">
          <mxGeometry x="830" y="500" width="100" height="40" as="geometry" />
        </mxCell>
        <mxCell id="e_puLNf8z6GZZm7geGai-88" value="VehicleCategory  " style="ellipse;whiteSpace=wrap;html=1;align=center;" vertex="1" parent="1">
          <mxGeometry x="910" y="470" width="100" height="40" as="geometry" />
        </mxCell>
        <mxCell id="e_puLNf8z6GZZm7geGai-90" value="VehiclePrice     " style="ellipse;whiteSpace=wrap;html=1;align=center;" vertex="1" parent="1">
          <mxGeometry x="970" y="430" width="100" height="40" as="geometry" />
        </mxCell>
        <mxCell id="e_puLNf8z6GZZm7geGai-92" style="edgeStyle=orthogonalEdgeStyle;rounded=0;orthogonalLoop=1;jettySize=auto;html=1;exitX=0.75;exitY=1;exitDx=0;exitDy=0;entryX=0.232;entryY=0.17;entryDx=0;entryDy=0;entryPerimeter=0;" edge="1" parent="1" source="e_puLNf8z6GZZm7geGai-14" target="e_puLNf8z6GZZm7geGai-88">
          <mxGeometry relative="1" as="geometry" />
        </mxCell>
        <mxCell id="e_puLNf8z6GZZm7geGai-93" style="edgeStyle=orthogonalEdgeStyle;rounded=0;orthogonalLoop=1;jettySize=auto;html=1;exitX=1;exitY=1;exitDx=0;exitDy=0;entryX=0.332;entryY=-0.025;entryDx=0;entryDy=0;entryPerimeter=0;" edge="1" parent="1" source="e_puLNf8z6GZZm7geGai-14" target="e_puLNf8z6GZZm7geGai-90">
          <mxGeometry relative="1" as="geometry" />
        </mxCell>
        <mxCell id="e_puLNf8z6GZZm7geGai-95" style="edgeStyle=orthogonalEdgeStyle;rounded=0;orthogonalLoop=1;jettySize=auto;html=1;exitX=0;exitY=1;exitDx=0;exitDy=0;entryX=0.788;entryY=0.031;entryDx=0;entryDy=0;entryPerimeter=0;" edge="1" parent="1" source="e_puLNf8z6GZZm7geGai-14" target="e_puLNf8z6GZZm7geGai-85">
          <mxGeometry relative="1" as="geometry" />
        </mxCell>
        <mxCell id="e_puLNf8z6GZZm7geGai-96" value="SalespersonID  " style="ellipse;whiteSpace=wrap;html=1;align=center;fontStyle=4;" vertex="1" parent="1">
          <mxGeometry x="365" y="630" width="100" height="40" as="geometry" />
        </mxCell>
        <mxCell id="e_puLNf8z6GZZm7geGai-98" value="SalespersonName" style="ellipse;whiteSpace=wrap;html=1;align=center;" vertex="1" parent="1">
          <mxGeometry x="494.5" y="700" width="109" height="40" as="geometry" />
        </mxCell>
        <mxCell id="e_puLNf8z6GZZm7geGai-104" value="DealerID       " style="ellipse;whiteSpace=wrap;html=1;align=center;fontStyle=4;" vertex="1" parent="1">
          <mxGeometry x="112" y="290" width="100" height="40" as="geometry" />
        </mxCell>
        <mxCell id="e_puLNf8z6GZZm7geGai-107" value="SalespersonNum" style="ellipse;whiteSpace=wrap;html=1;align=center;" vertex="1" parent="1">
          <mxGeometry x="630" y="630" width="100" height="40" as="geometry" />
        </mxCell>
        <mxCell id="e_puLNf8z6GZZm7geGai-109" value="DealerName     " style="ellipse;whiteSpace=wrap;html=1;align=center;" vertex="1" parent="1">
          <mxGeometry x="30" y="330" width="100" height="40" as="geometry" />
        </mxCell>
        <mxCell id="e_puLNf8z6GZZm7geGai-110" value="DealerLocation " style="ellipse;whiteSpace=wrap;html=1;align=center;" vertex="1" parent="1">
          <mxGeometry x="40" y="390" width="100" height="40" as="geometry" />
        </mxCell>
        <mxCell id="e_puLNf8z6GZZm7geGai-111" value="&lt;span style=&quot;font-family: Arial; font-size: 13px; white-space-collapse: preserve; background-color: rgb(255, 255, 255);&quot;&gt;DealerRating&lt;/span&gt;" style="ellipse;whiteSpace=wrap;html=1;align=center;" vertex="1" parent="1">
          <mxGeometry x="170" y="430" width="100" height="40" as="geometry" />
        </mxCell>
        <mxCell id="e_puLNf8z6GZZm7geGai-112" style="edgeStyle=orthogonalEdgeStyle;rounded=0;orthogonalLoop=1;jettySize=auto;html=1;exitX=0.25;exitY=0;exitDx=0;exitDy=0;entryX=0.646;entryY=1.086;entryDx=0;entryDy=0;entryPerimeter=0;" edge="1" parent="1" source="e_puLNf8z6GZZm7geGai-10" target="e_puLNf8z6GZZm7geGai-104">
          <mxGeometry relative="1" as="geometry" />
        </mxCell>
        <mxCell id="e_puLNf8z6GZZm7geGai-117" value="SaleID         " style="ellipse;whiteSpace=wrap;html=1;align=center;fontStyle=4;" vertex="1" parent="1">
          <mxGeometry x="440" y="540" width="100" height="40" as="geometry" />
        </mxCell>
        <mxCell id="e_puLNf8z6GZZm7geGai-118" value="SaleDate       " style="ellipse;whiteSpace=wrap;html=1;align=center;" vertex="1" parent="1">
          <mxGeometry x="560" y="540" width="100" height="40" as="geometry" />
        </mxCell>
        <mxCell id="e_puLNf8z6GZZm7geGai-119" value="SaleType       " style="ellipse;whiteSpace=wrap;html=1;align=center;" vertex="1" parent="1">
          <mxGeometry x="380" y="500" width="100" height="40" as="geometry" />
        </mxCell>
        <mxCell id="e_puLNf8z6GZZm7geGai-120" value="Amount         " style="ellipse;whiteSpace=wrap;html=1;align=center;" vertex="1" parent="1">
          <mxGeometry x="620" y="500" width="100" height="40" as="geometry" />
        </mxCell>
        <mxCell id="e_puLNf8z6GZZm7geGai-121" value="UnitsSold      " style="ellipse;whiteSpace=wrap;html=1;align=center;" vertex="1" parent="1">
          <mxGeometry x="499" y="382" width="100" height="40" as="geometry" />
        </mxCell>
        <mxCell id="e_puLNf8z6GZZm7geGai-122" style="edgeStyle=orthogonalEdgeStyle;rounded=0;orthogonalLoop=1;jettySize=auto;html=1;exitX=0.25;exitY=1;exitDx=0;exitDy=0;entryX=0.742;entryY=0.061;entryDx=0;entryDy=0;entryPerimeter=0;" edge="1" parent="1" source="e_puLNf8z6GZZm7geGai-13" target="e_puLNf8z6GZZm7geGai-117">
          <mxGeometry relative="1" as="geometry" />
        </mxCell>
        <mxCell id="e_puLNf8z6GZZm7geGai-123" style="edgeStyle=orthogonalEdgeStyle;rounded=0;orthogonalLoop=1;jettySize=auto;html=1;exitX=0;exitY=0.75;exitDx=0;exitDy=0;entryX=0.9;entryY=0.25;entryDx=0;entryDy=0;entryPerimeter=0;" edge="1" parent="1" source="e_puLNf8z6GZZm7geGai-13" target="e_puLNf8z6GZZm7geGai-119">
          <mxGeometry relative="1" as="geometry" />
        </mxCell>
        <mxCell id="e_puLNf8z6GZZm7geGai-124" style="edgeStyle=orthogonalEdgeStyle;rounded=0;orthogonalLoop=1;jettySize=auto;html=1;exitX=1;exitY=0.75;exitDx=0;exitDy=0;entryX=0.1;entryY=0.25;entryDx=0;entryDy=0;entryPerimeter=0;" edge="1" parent="1" source="e_puLNf8z6GZZm7geGai-13" target="e_puLNf8z6GZZm7geGai-120">
          <mxGeometry relative="1" as="geometry" />
        </mxCell>
        <mxCell id="e_puLNf8z6GZZm7geGai-125" style="edgeStyle=orthogonalEdgeStyle;rounded=0;orthogonalLoop=1;jettySize=auto;html=1;exitX=0.75;exitY=1;exitDx=0;exitDy=0;entryX=0.201;entryY=0.138;entryDx=0;entryDy=0;entryPerimeter=0;" edge="1" parent="1" source="e_puLNf8z6GZZm7geGai-13" target="e_puLNf8z6GZZm7geGai-118">
          <mxGeometry relative="1" as="geometry" />
        </mxCell>
        <mxCell id="e_puLNf8z6GZZm7geGai-127" value="" style="line;strokeWidth=1;rotatable=0;dashed=0;labelPosition=right;align=left;verticalAlign=middle;spacingTop=0;spacingLeft=6;points=[];portConstraint=eastwest;" vertex="1" parent="1">
          <mxGeometry x="285" y="60" width="60" height="10" as="geometry" />
        </mxCell>
        <mxCell id="e_puLNf8z6GZZm7geGai-128" value="" style="line;strokeWidth=1;rotatable=0;dashed=0;labelPosition=right;align=left;verticalAlign=middle;spacingTop=0;spacingLeft=6;points=[];portConstraint=eastwest;" vertex="1" parent="1">
          <mxGeometry x="480" y="142" width="60" height="10" as="geometry" />
        </mxCell>
        <mxCell id="e_puLNf8z6GZZm7geGai-129" value="" style="line;strokeWidth=1;rotatable=0;dashed=0;labelPosition=right;align=left;verticalAlign=middle;spacingTop=0;spacingLeft=6;points=[];portConstraint=eastwest;" vertex="1" parent="1">
          <mxGeometry x="720" y="450" width="60" height="10" as="geometry" />
        </mxCell>
      </root>
    </mxGraphModel>
  </diagram>
</mxfile>
